<?xml version="1.0" encoding="UTF-8" standalone="no"?>
<svg
   xmlns:dc="http://purl.org/dc/elements/1.1/"
   xmlns:cc="http://creativecommons.org/ns#"
   xmlns:rdf="http://www.w3.org/1999/02/22-rdf-syntax-ns#"
   xmlns:svg="http://www.w3.org/2000/svg"
   xmlns="http://www.w3.org/2000/svg"
   viewBox="0 0 302.35999 156.48"
   height="156.48"
   width="302.35999"
   xml:space="preserve"
   id="svg2"
   version="1.1"><metadata
     id="metadata8"><rdf:RDF><cc:Work
         rdf:about=""><dc:format>image/svg+xml</dc:format><dc:type
           rdf:resource="http://purl.org/dc/dcmitype/StillImage" /></cc:Work></rdf:RDF></metadata><defs
     id="defs6" /><g
     transform="matrix(1.3333333,0,0,-1.3333333,0,156.48)"
     id="g10"><g
       transform="scale(0.1)"
       id="g12"><path
         id="path14"
         style="fill:#ffffff;fill-opacity:1;fill-rule:nonzero;stroke:none"
         d="m 1133.86,664.91 c -136.044,0 -246.321,110.285 -246.321,246.324 0,136.036 110.277,246.316 246.321,246.316 45.52,0 88.15,-12.36 124.73,-33.88 -4.63,-17.12 -11.47,-38.84 -19.6,-53.6 -15.3,-27.78 -36.33,-36.59 -78.84,-47.37 -42.52,-10.77 -87.09,-15.3 -106.37,-44.208 -18.77,-28.156 -51.23,-74.801 -58.487,-91.949 -9.605,-22.703 -26.895,-74.605 -33.07,-106.27 -1.328,-6.82 -2.547,-13.687 -2.11,-18.222 1.008,-10.578 7.981,-15.34 15.571,-14.77 15.972,1.196 39.546,8.895 56.346,50.055 19.7,48.238 20.41,49.637 30.04,62.676 9.64,13.035 25.66,34.777 31.89,41.011 6.24,6.239 14.03,13.508 41.81,17.477 27.78,3.965 43.99,5.754 48.53,5.188 4.53,-0.567 10.84,-4.395 7.44,-20.27 -3.4,-15.875 -10.06,-18.469 -18.55,-24.133 -8.51,-5.668 -39,-16.551 -54.6,-33.246 -10.28,-11 -17.3,-23.262 -16.83,-39.476 0.27,-9.29 1.98,-14.079 4.41,-16.844 3.13,-3.563 7.56,-2.953 13.3,0.238 10.2,5.668 20.14,18.711 57.4,36.375 30.04,14.238 51.62,20.57 65.32,35.008 14.64,15.437 28.92,45.238 37.57,67.832 7.27,18.976 7.36,35.144 11.34,52.719 3.96,17.574 5.66,28.909 14.73,48.749 4.14,9.03 11.42,23.8 18.15,37.22 35.11,-42.57 56.2,-97.137 56.2,-156.626 0,-136.039 -110.28,-246.324 -246.32,-246.324 z m 197.95,418.51 c -4.41,5.08 -9.03,9.97 -13.83,14.69 -2.02,-4.25 -4.54,-9.57 -7.29,-15.43 -8.33,-17.72 -18.6,-40.36 -23.91,-53.17 -9.64,-23.24 -11.34,-32.315 -14.17,-49.319 -2.83,-17.007 -4.47,-26.851 -10.08,-42.972 -7.24,-20.809 -13.48,-34.321 -21.45,-46.571 -8.8,-13.543 -18.18,-23.554 -33.31,-31.992 -10.45,-5.824 -46.03,-21.265 -62.4,-31.25 -15.71,-9.57 -23.21,-15.965 -24.91,-15.582 -1.15,0.266 -2.26,3.973 0.57,10.207 2.84,6.235 10.65,17.625 29.36,27.832 18.71,10.203 49.44,23.614 57.85,43.032 3.11,7.171 10,27.132 5.02,38.253 -1.9,4.25 -6,7.157 -11.71,10.524 -10.88,6.41 -43.11,-0.031 -62.38,-3.43 -19.27,-3.402 -44.78,-8.508 -56.69,-21.543 -11.9,-13.039 -31.18,-39.683 -38.54,-52.152 -7.37,-12.473 -9.08,-20.16 -21.55,-49.641 -12.47,-29.476 -18.49,-43.699 -37.523,-48.859 -9.066,-2.457 -9.609,-0.168 -7.379,10.125 5.891,27.129 16.559,59.141 23.932,80.117 7.37,20.973 14.17,35.469 23.24,48.508 9.07,13.035 30.05,43.644 40.25,57.254 10.2,13.601 22.68,23.371 50.45,30.738 27.78,7.371 65.58,14.451 87.3,23.681 22.68,9.64 39.76,18.49 53.56,47.05 7.11,14.74 13.5,34.11 18.16,50.02 1.79,6.1 3.32,11.69 4.54,16.32 -5.28,3.52 -10.69,6.84 -16.24,9.97 -38.06,21.49 -82,33.77 -128.82,33.77 -144.899,0 -262.368,-117.47 -262.368,-262.366 0,-144.902 117.469,-262.367 262.368,-262.367 144.89,0 262.37,117.465 262.37,262.367 0,65.891 -24.3,126.106 -64.42,172.186" /><path
         id="path16"
         style="fill:#ffffff;fill-opacity:1;fill-rule:nonzero;stroke:none"
         d="m 2132.54,527.266 c 21.61,17 75.2,18.246 135.18,3.797 v 15.601 c -63.63,14.848 -119.22,12.559 -144.6,-7.426 -18.7,-14.711 -29.72,-39.187 -29.72,-72.758 v -65.929 h -97.17 v -15.242 h 97.17 V 8.42969 h 15.25 V 385.309 h 149.32 v 15.242 h -149.32 v 65.929 c 0,29.063 8.85,48.942 23.89,60.786 z M 1126.23,8.42188 h 15.25 V 553.012 h -15.25 z M 1931.54,238.766 h -1.56 c -5.21,-7.121 -13.28,-12.578 -24.21,-16.399 -10.93,-3.808 -23.42,-6.746 -37.48,-8.769 -14.06,-2.032 -29.29,-3.309 -45.69,-3.809 -16.39,-0.516 -32.4,-1.277 -48.03,-2.293 -15.61,-1.027 -30.84,-2.93 -45.68,-5.723 -14.83,-2.793 -27.99,-7.882 -39.43,-15.253 -11.46,-7.375 -20.57,-17.54 -27.34,-30.508 -6.76,-12.961 -10.14,-29.871 -10.14,-50.711 0,-11.1994 1.95,-22.2619 5.86,-33.1916 3.89,-10.9297 10.53,-20.5899 19.91,-28.9805 9.36,-8.3906 21.47,-15.25 36.31,-20.5976 14.83,-5.3321 33.18,-8 55.06,-8 26.01,0 49.19,4.3085 69.49,12.957 20.3,8.6523 37.35,19.9609 51.15,33.9531 13.79,13.9688 24.21,30.1172 31.24,48.4296 7.02,18.301 10.54,37.109 10.54,56.43 z m 49.59,-216.2347 c 5.97,0.2578 11.57,0.6406 16.78,1.1601 V 8.42188 h -23.42 c -11.46,0 -21.48,2.67972 -30.07,8.01952 -8.59,5.3281 -12.88,15.3594 -12.88,30.1172 v 51.1133 h -1.56 c -4.17,-12.7227 -10.82,-24.9219 -19.92,-36.6133 -9.12,-11.707 -20.57,-22.1289 -34.35,-31.2773 -13.81,-9.1524 -29.55,-16.4024 -47.25,-21.74224 -17.7,-5.32812 -36.97,-8.00781 -57.79,-8.00781 -40.61,0 -73.15,8.76953 -97.61,26.32035 -24.47,17.539 -36.7,43.8593 -36.7,78.9494 0,24.398 4.03,43.969 12.1,58.719 8.07,14.746 18.61,26.316 31.62,34.707 13.01,8.386 27.85,14.226 44.52,17.546 16.65,3.301 33.31,5.461 49.97,6.477 27.59,1.531 51.28,2.918 71.07,4.199 19.77,1.258 36.04,3.809 48.81,7.625 12.75,3.809 22.12,9.649 28.1,17.539 5.99,7.883 8.99,19.192 8.99,33.946 0,11.691 -1.05,23.898 -3.12,36.613 -2.1,12.695 -7.17,24.402 -15.23,35.078 -8.08,10.684 -19.91,19.453 -35.54,26.316 -15.61,6.868 -36.7,10.293 -63.25,10.293 -42.17,0 -74.96,-10.039 -98.39,-30.117 -23.43,-20.097 -36.45,-48.437 -39.04,-85.047 h -15.62 c 1.04,18.301 4.94,35.469 11.71,51.485 6.76,16.015 16.52,29.863 29.29,41.57 12.74,11.691 28.37,20.84 46.85,27.453 18.47,6.602 40.21,9.922 65.2,9.922 17.69,0 34.48,-1.797 50.37,-5.344 15.88,-3.562 29.79,-9.793 41.78,-18.691 11.97,-8.895 21.6,-20.469 28.89,-34.707 7.29,-14.238 11.19,-32.02 11.71,-53.387 V 48.0898 c 0,-7.6289 1.57,-13.2304 4.69,-16.7812 3.13,-3.5586 7.29,-5.9805 12.5,-7.2383 5.2,-1.2812 10.79,-1.8008 16.79,-1.539 z M 1557.69,216.656 c 0,23.887 -3.43,46.641 -10.22,68.25 -6.82,21.614 -16.91,40.547 -30.26,56.828 -13.37,16.27 -30,29.102 -49.91,38.524 -19.91,9.394 -42.98,14.101 -69.16,14.101 -22.01,0 -42.59,-4.07 -61.71,-12.195 -19.12,-8.144 -35.89,-19.961 -50.29,-35.469 -14.42,-15.519 -26.08,-34.199 -34.97,-56.054 -8.92,-21.875 -14.15,-46.536 -15.73,-73.985 z m 7.45,62.539 c 6.55,-24.922 9.31,-50.851 8.26,-77.804 h -337.96 c 0.52,-26.434 3.79,-50.981 9.83,-73.602 6.01,-22.629 15.33,-42.3281 27.9,-59.0976 12.58,-16.7812 28.81,-30.0117 48.73,-39.6719 19.91,-9.6679 44.28,-14.4882 73.08,-14.4882 42.45,0 77.68,10.7968 105.73,32.4101 28.02,21.6094 45.45,54.0276 52.26,97.2496 h 15.72 c -5.77,-45.7613 -24.37,-81.2301 -55.8,-106.4019 -31.44,-25.168 -70.23,-37.75785 -116.33,-37.75785 -31.43,-0.492188 -58.29,4.32813 -80.56,14.50005 -22.27,10.1601 -40.47,24.5273 -54.62,43.0898 -14.15,18.5586 -24.64,40.4297 -31.43,65.5979 -6.82,25.16 -10.23,52.246 -10.23,81.23 0,32.528 4.98,61.512 14.93,86.953 9.95,25.411 23.06,46.903 39.31,64.453 16.23,17.54 35.1,30.879 56.59,40.028 21.48,9.16 43.47,13.742 66.01,13.742 31.44,0 58.55,-5.852 81.34,-17.551 22.81,-11.699 41.39,-27.207 55.82,-46.523 14.4,-19.336 24.88,-41.446 31.42,-66.356 z M 288.309,238.766 h -1.524 c -5.09,-7.121 -12.969,-12.578 -23.644,-16.399 -10.68,-3.808 -22.883,-6.746 -36.61,-8.769 -13.73,-2.032 -28.601,-3.309 -44.621,-3.809 -16.015,-0.516 -31.652,-1.277 -46.906,-2.293 -15.254,-1.027 -30.133,-2.93 -44.6173,-5.723 C 75.8945,198.98 63.043,193.891 51.8633,186.52 40.6797,179.145 31.7734,168.98 25.1719,156.012 c -6.6133,-12.961 -9.9141,-29.871 -9.9141,-50.711 0,-11.1994 1.9063,-22.2619 5.7188,-33.1916 3.8125,-10.9297 10.2929,-20.5899 19.4492,-28.9805 9.1484,-8.3906 20.9765,-15.25 35.4687,-20.5976 14.4922,-5.3321 32.4105,-8 53.7695,-8 25.418,0 48.051,4.3085 67.879,12.957 19.836,8.6523 36.484,19.9609 49.961,33.9531 13.469,13.9688 23.644,30.1172 30.512,48.4296 6.863,18.301 10.293,37.109 10.293,56.43 z M 336.742,22.5313 c 5.84,0.2578 11.309,0.6406 16.399,1.1601 V 8.42188 h -22.883 c -11.192,0 -20.973,2.67972 -29.36,8.01952 -8.394,5.3281 -12.589,15.3594 -12.589,30.1172 v 51.1133 h -1.524 C 282.711,84.9492 276.227,72.75 267.336,61.0586 258.434,49.3516 247.242,38.9297 233.773,29.7813 220.297,20.6289 204.91,13.3789 187.633,8.03906 170.336,2.71094 151.52,0.03125 131.191,0.03125 91.5273,0.03125 59.7461,8.80078 35.8477,26.3516 11.9375,43.8906 0,70.2109 0,105.301 c 0,24.398 3.93359,43.969 11.8242,58.719 7.8789,14.746 18.1758,26.316 30.8906,34.707 12.7032,8.386 27.1954,14.226 43.4727,17.546 16.2695,3.301 32.5395,5.461 48.8165,6.477 26.945,1.531 50.078,2.918 69.41,4.199 19.316,1.258 35.199,3.809 47.664,7.625 12.457,3.809 21.61,9.649 27.457,17.539 5.844,7.883 8.774,19.192 8.774,33.946 0,11.691 -1.024,23.898 -3.051,36.613 -2.035,12.695 -6.996,24.402 -14.871,35.078 -7.887,10.684 -19.449,19.453 -34.703,26.316 -15.254,6.868 -35.848,10.293 -61.782,10.293 -41.187,0 -73.222,-10.039 -96.1051,-30.117 C 54.918,344.145 42.1953,315.805 39.6641,279.195 H 24.4102 c 1.0078,18.301 4.8242,35.469 11.4375,51.485 6.6015,16.015 16.1406,29.863 28.6054,41.57 12.4492,11.691 27.7032,20.84 45.7619,27.453 18.043,6.602 39.281,9.922 63.687,9.922 17.278,0 33.68,-1.797 49.2,-5.344 15.5,-3.562 29.101,-9.793 40.804,-18.691 11.688,-8.895 21.094,-20.469 28.219,-34.707 7.113,-14.238 10.93,-32.02 11.438,-53.387 V 48.0898 c 0,-7.6289 1.531,-13.2304 4.578,-16.7812 3.05,-3.5586 7.113,-5.9805 12.199,-7.2383 5.082,-1.2812 10.555,-1.8008 16.402,-1.539 z M 633.434,183.09 c -11.954,7.629 -25.43,13.594 -40.426,17.922 -15,4.316 -30.121,8.515 -45.379,12.586 -21.356,5.597 -40.043,10.422 -56.063,14.492 -16.015,4.062 -30.886,8.887 -44.617,14.492 -13.23,5.586 -23.777,13.606 -31.652,24.023 -7.891,10.422 -11.824,25.293 -11.824,44.622 0,3.554 1.015,9.91 3.05,19.07 2.028,9.152 6.864,18.43 14.493,27.832 7.625,9.414 19.32,17.805 35.086,25.176 15.753,7.363 37.375,11.054 64.832,11.054 18.808,0 35.964,-2.031 51.484,-6.093 15.508,-4.082 28.852,-10.555 40.043,-19.453 11.176,-8.907 19.828,-20.215 25.926,-33.934 6.105,-13.742 9.156,-30.52 9.156,-50.344 h 15.254 c 0,43.723 -12.715,75.508 -38.133,95.332 -25.43,19.836 -60.008,29.758 -103.73,29.758 -24.411,0 -45,-3.059 -61.786,-9.16 -16.777,-6.106 -30.507,-13.985 -41.183,-23.645 -10.68,-9.656 -18.309,-20.34 -22.883,-32.031 -4.574,-11.699 -6.863,-22.891 -6.863,-33.562 0,-21.348 3.812,-38.399 11.437,-51.106 7.629,-12.703 19.571,-22.625 35.852,-29.746 11.18,-5.086 23.894,-9.656 38.133,-13.719 14.234,-4.082 30.761,-8.39 49.578,-12.968 16.781,-4.083 33.301,-8.145 49.578,-12.208 16.266,-4.074 30.629,-9.531 43.09,-16.398 12.457,-6.863 22.625,-15.633 30.515,-26.32 7.875,-10.672 11.821,-24.66 11.821,-41.942 0,-16.7809 -3.946,-31.0192 -11.821,-42.7106 C 638.512,52.3984 628.477,42.8711 616.273,35.5 604.07,28.1289 590.461,22.7891 575.469,19.4883 c -15.004,-3.3086 -29.629,-4.957 -43.86,-4.957 -46.273,0 -81.742,10.2968 -106.394,30.8789 -24.672,20.6015 -36.996,53.0195 -36.996,97.2618 h -15.254 c 0,-49.3439 13.348,-85.4337 40.043,-108.3126 26.695,-22.8789 66.226,-34.32815 118.601,-34.32815 16.786,0 33.68,1.91016 50.719,5.73047 17.031,3.80859 32.289,10.03908 45.766,18.68748 13.469,8.6289 24.406,19.8203 32.801,33.5508 8.386,13.7305 12.582,30.5195 12.582,50.34 0,18.808 -3.696,34.058 -11.059,45.769 -7.379,11.692 -17.043,21.356 -28.984,28.981 z m 398.896,146.066 c 6.87,-17.551 10.3,-37.754 10.3,-60.644 V 8.42188 h -15.25 V 266.227 c 0,22.878 -3.31,42.332 -9.92,58.347 -6.61,16.016 -15.63,29.239 -27.073,39.668 -11.442,10.41 -24.676,18.039 -39.66,22.871 -15.008,4.836 -30.891,7.246 -47.676,7.246 -23.387,0 -43.985,-4.453 -61.778,-13.339 -17.808,-8.907 -32.675,-20.86 -44.617,-35.848 -11.961,-15 -20.976,-32.422 -27.082,-52.246 -6.097,-19.836 -9.148,-40.696 -9.148,-62.551 V 8.42188 H 745.172 V 553.012 h 15.254 V 303.598 h 1.527 c 3.551,15.265 9.266,29.238 17.156,41.953 7.883,12.707 17.793,23.898 29.746,33.554 11.946,9.661 25.801,17.161 41.571,22.512 15.754,5.332 33.293,8.008 52.625,8.008 20.332,0 39.023,-3.059 56.066,-9.16 17.031,-6.106 31.77,-15.129 44.233,-27.07 12.46,-11.965 22.12,-26.7 28.98,-44.239" /></g></g></svg>