<?xml version="1.0" encoding="UTF-8" standalone="no"?>
<svg
   xmlns:dc="http://purl.org/dc/elements/1.1/"
   xmlns:cc="http://creativecommons.org/ns#"
   xmlns:rdf="http://www.w3.org/1999/02/22-rdf-syntax-ns#"
   xmlns:svg="http://www.w3.org/2000/svg"
   xmlns="http://www.w3.org/2000/svg"
   viewBox="0 0 377.94666 102.04"
   height="102.04"
   width="377.94666"
   xml:space="preserve"
   id="svg2"
   version="1.1"><metadata
     id="metadata8"><rdf:RDF><cc:Work
         rdf:about=""><dc:format>image/svg+xml</dc:format><dc:type
           rdf:resource="http://purl.org/dc/dcmitype/StillImage" /></cc:Work></rdf:RDF></metadata><defs
     id="defs6" /><g
     transform="matrix(1.3333333,0,0,-1.3333333,0,102.04)"
     id="g10"><g
       transform="scale(0.1)"
       id="g12"><path
         id="path14"
         style="fill:#ffffff;fill-opacity:1;fill-rule:nonzero;stroke:none"
         d="m 2451.99,23.3984 c -198.41,0 -359.25,160.8516 -359.25,359.2576 0,198.41 160.84,359.254 359.25,359.254 66.39,0 128.56,-18.031 181.92,-49.43 -6.75,-24.957 -16.72,-56.632 -28.59,-78.167 -22.32,-40.512 -52.98,-53.368 -114.99,-69.079 -62.01,-15.707 -127.02,-22.324 -155.13,-64.492 -27.38,-41.054 -74.73,-109.086 -85.31,-134.097 -14.01,-33.114 -39.22,-108.809 -48.23,-154.993 -1.94,-9.953 -3.71,-19.961 -3.07,-26.574 1.47,-15.43 11.64,-22.383 22.7,-21.551 23.3,1.746 57.68,12.981 82.19,73.008 28.72,70.363 29.76,72.395 43.82,91.41 14.05,19.02 37.41,50.731 46.5,59.821 9.09,9.097 20.47,19.699 60.98,25.488 40.52,5.785 64.16,8.394 70.78,7.562 6.61,-0.824 15.82,-6.41 10.86,-29.558 -4.96,-23.156 -14.67,-26.93 -27.07,-35.199 -12.4,-8.27 -56.87,-24.137 -79.63,-48.489 -14.99,-16.035 -25.24,-33.925 -24.54,-57.578 0.39,-13.547 2.88,-20.527 6.42,-24.57 4.56,-5.188 11.03,-4.297 19.4,0.351 14.88,8.262 29.38,27.293 83.72,53.055 43.81,20.774 75.29,30 95.27,51.059 21.36,22.511 42.18,65.98 54.8,98.929 10.59,27.68 10.74,51.258 16.53,76.887 5.78,25.637 8.26,42.168 21.49,71.106 6.02,13.164 16.66,34.707 26.46,54.281 51.21,-62.082 81.97,-141.668 81.97,-228.434 0,-198.406 -160.84,-359.2576 -359.25,-359.2576 z m 288.72,610.3866 c -6.45,7.403 -13.19,14.547 -20.18,21.438 -2.94,-6.207 -6.62,-13.969 -10.64,-22.504 -12.15,-25.867 -27.11,-58.875 -34.86,-77.563 -14.06,-33.898 -16.54,-47.129 -20.67,-71.929 -4.13,-24.801 -6.52,-39.164 -14.71,-62.672 -10.56,-30.344 -19.66,-50.051 -31.28,-67.926 -12.83,-19.75 -26.51,-34.348 -48.59,-46.66 -15.24,-8.496 -67.12,-31.004 -91.01,-45.574 -22.9,-13.957 -33.85,-23.293 -36.32,-22.727 -1.69,0.391 -3.3,5.793 0.83,14.883 4.13,9.094 15.53,25.715 42.82,40.597 27.28,14.879 72.11,34.442 84.37,62.762 4.54,10.465 14.59,39.57 7.33,55.789 -2.78,6.207 -8.76,10.438 -17.08,15.344 -15.87,9.352 -62.87,-0.039 -90.98,-5 -28.12,-4.961 -65.31,-12.402 -82.68,-31.414 -17.36,-19.02 -45.48,-57.879 -56.22,-76.066 -10.75,-18.196 -13.23,-29.407 -31.42,-72.403 -18.19,-42.988 -26.98,-63.73 -54.73,-71.262 -13.22,-3.582 -14.01,-0.242 -10.76,14.778 8.58,39.558 24.15,86.25 34.9,116.847 10.75,30.582 20.66,51.727 33.9,70.743 13.23,19.015 43.82,63.66 58.7,83.504 14.88,19.843 33.07,34.085 73.58,44.835 40.52,10.747 95.66,21.075 127.33,34.536 33.07,14.054 57.97,26.976 78.1,68.621 10.39,21.496 19.7,49.746 26.5,72.961 2.6,8.894 4.84,17.05 6.63,23.8 -7.71,5.122 -15.61,9.973 -23.69,14.532 -55.5,31.347 -119.6,49.254 -187.89,49.254 -211.33,0 -382.65,-171.317 -382.65,-382.653 0,-211.336 171.32,-382.65209375 382.65,-382.65209375 211.33,0 382.65,171.31609375 382.65,382.65209375 0,96.102 -35.43,183.922 -93.93,251.129" /><path
         id="path16"
         style="fill:#ffffff;fill-opacity:1;fill-rule:nonzero;stroke:none"
         d="m 1865.87,611.941 c 18.91,14.875 65.79,15.965 118.27,3.325 v 13.652 c -55.67,12.988 -104.31,10.984 -126.52,-6.5 -16.36,-12.871 -26,-34.289 -26,-63.656 v -57.688 h -85.01 V 487.73 h 85.01 V 157.988 h 13.34 V 487.73 h 130.66 v 13.344 h -130.66 v 57.688 c 0,25.422 7.75,42.816 20.91,53.179 z M 985.398,157.98 h 13.348 V 634.469 H 985.398 Z M 1690,359.523 h -1.36 c -4.57,-6.234 -11.62,-11.011 -21.19,-14.351 -9.56,-3.332 -20.49,-5.902 -32.79,-7.668 -12.29,-1.785 -25.62,-2.902 -39.97,-3.344 -14.36,-0.445 -28.35,-1.109 -42.02,-2 -13.66,-0.898 -26.98,-2.562 -39.97,-5.004 -12.98,-2.453 -24.49,-6.906 -34.5,-13.351 -10.03,-6.45 -18,-15.348 -23.92,-26.696 -5.93,-11.336 -8.88,-26.14 -8.88,-44.375 0,-9.793 1.7,-19.461 5.12,-29.019 3.42,-9.582 9.23,-18.027 17.43,-25.371 8.19,-7.336 18.78,-13.34 31.77,-18.02 12.98,-4.668 29.03,-7.004 48.17,-7.004 22.77,0 43.04,3.774 60.8,11.352 17.77,7.558 32.68,17.449 44.76,29.695 12.06,12.227 21.18,26.36 27.33,42.371 6.15,16.02 9.22,32.473 9.22,49.387 z m 43.39,-189.199 c 5.23,0.227 10.13,0.559 14.69,1.004 V 157.98 h -20.5 c -10.03,0 -18.79,2.344 -26.31,7.012 -7.51,4.668 -11.27,13.446 -11.27,26.36 v 44.714 h -1.36 c -3.66,-11.132 -9.47,-21.804 -17.43,-32.031 -7.98,-10.246 -17.99,-19.363 -30.06,-27.363 -12.08,-8.008 -25.85,-14.356 -41.33,-19.024 -15.5,-4.668 -32.36,-7 -50.57,-7 -35.53,0 -63.99,7.665 -85.4,23.016 -21.42,15.352 -32.12,38.367 -32.12,69.07 0,21.36 3.53,38.481 10.6,51.387 7.05,12.902 16.28,23.024 27.66,30.363 11.39,7.34 24.37,12.457 38.95,15.352 14.57,2.891 29.15,4.773 43.73,5.668 24.14,1.34 44.86,2.555 62.18,3.672 17.3,1.105 31.53,3.336 42.69,6.676 11.16,3.336 19.37,8.449 24.6,15.347 5.24,6.895 7.86,16.789 7.86,29.699 0,10.227 -0.92,20.907 -2.73,32.036 -1.83,11.113 -6.27,21.351 -13.32,30.691 -7.07,9.348 -17.42,17.02 -31.1,23.027 -13.66,6.004 -32.11,9.008 -55.34,9.008 -36.89,0 -65.58,-8.789 -86.08,-26.355 -20.5,-17.582 -31.89,-42.379 -34.16,-74.414 h -13.67 c 0.9,16.015 4.32,31.035 10.25,45.043 5.91,14.011 14.45,26.136 25.62,36.379 11.16,10.222 24.82,18.23 40.99,24.015 16.16,5.781 35.19,8.684 57.05,8.684 15.48,0 30.17,-1.571 44.07,-4.68 13.9,-3.113 26.07,-8.566 36.56,-16.348 10.48,-7.789 18.89,-17.91 25.28,-30.367 6.37,-12.461 9.79,-28.019 10.24,-46.711 V 192.688 c 0,-6.668 1.37,-11.583 4.11,-14.676 2.73,-3.125 6.37,-5.246 10.92,-6.352 4.55,-1.109 9.46,-1.558 14.7,-1.336 z M 1362.9,340.172 c 0,20.902 -3,40.812 -8.94,59.723 -5.97,18.906 -14.79,35.472 -26.47,49.714 -11.7,14.243 -26.26,25.465 -43.67,33.707 -17.43,8.223 -37.61,12.344 -60.52,12.344 -19.25,0 -37.25,-3.562 -53.99,-10.68 -16.73,-7.121 -31.4,-17.46 -44,-31.035 -12.62,-13.574 -22.81,-29.922 -30.61,-49.043 -7.79,-19.132 -12.37,-40.711 -13.75,-64.73 z m 6.53,54.719 c 5.73,-21.801 8.13,-44.493 7.22,-68.067 h -295.7 c 0.45,-23.14 3.32,-44.617 8.6,-64.398 5.27,-19.809 13.41,-37.043 24.41,-51.723 11,-14.676 25.21,-26.258 42.64,-34.707 17.42,-8.457 38.74,-12.676 63.95,-12.676 37.13,0 67.96,9.446 92.49,28.364 24.52,18.906 39.77,47.261 45.73,85.086 h 13.76 c -5.05,-40.04 -21.32,-71.075 -48.83,-93.094 -27.5,-22.024 -61.44,-33.028 -101.78,-33.028 -27.5,-0.441 -51,3.778 -70.48,12.672 -19.49,8.899 -35.41,21.457 -47.8,37.707 -12.37,16.243 -21.55,35.371 -27.5,57.395 -5.96,22.019 -8.94,45.711 -8.94,71.07 0,28.465 4.35,53.821 13.07,76.074 8.7,22.243 20.16,41.043 34.38,56.395 14.2,15.348 30.71,27.023 49.52,35.031 18.79,8.016 38.03,12.02 57.75,12.02 27.51,0 51.23,-5.121 71.18,-15.36 19.94,-10.238 36.2,-23.8 48.83,-40.703 12.6,-16.914 21.76,-36.261 27.5,-58.058 z M 252.258,359.523 h -1.332 c -4.453,-6.234 -11.348,-11.011 -20.696,-14.351 -9.339,-3.332 -20.019,-5.902 -32.027,-7.668 -12.015,-1.785 -25.027,-2.902 -39.043,-3.344 -14.012,-0.445 -27.691,-1.109 -41.039,-2 -13.348,-0.898 -26.3593,-2.562 -39.0429,-5.004 -12.6797,-2.453 -23.9179,-6.906 -33.6992,-13.351 -9.7891,-6.45 -17.5781,-15.348 -23.3555,-26.696 -5.7851,-11.336 -8.6757,-26.14 -8.6757,-44.375 0,-9.793 1.6679,-19.461 5.0039,-29.019 3.3359,-9.582 9.0078,-18.027 17.0156,-25.371 8.0078,-7.336 18.3555,-13.34 31.0312,-18.02 12.6797,-4.668 28.3633,-7.004 47.0506,-7.004 22.242,0 42.043,3.774 59.395,11.352 17.347,7.558 31.918,17.449 43.711,29.695 11.781,12.227 20.687,26.36 26.695,42.371 6.004,16.02 9.008,32.473 9.008,49.387 z m 42.375,-189.199 c 5.109,0.227 9.894,0.559 14.347,1.004 V 157.98 h -20.019 c -9.793,0 -18.352,2.344 -25.691,7.012 -7.34,4.668 -11.012,13.446 -11.012,26.36 v 44.714 h -1.332 c -3.571,-11.132 -9.242,-21.804 -17.024,-32.031 -7.785,-10.246 -17.578,-19.363 -29.359,-27.363 -11.797,-8.008 -25.254,-14.356 -40.375,-19.024 -15.129,-4.668 -31.598,-7 -49.387,-7 -34.699,0 -62.5076,7.665 -83.4099,23.016 -20.9258,15.352 -31.36719375,38.367 -31.36719375,69.07 0,21.36 3.44140375,38.481 10.33989375,51.387 6.8945,12.902 15.9023,23.024 27.0273,30.363 11.1172,7.34 23.7969,12.457 38.043,15.352 14.2304,2.891 28.4649,4.773 42.7069,5.668 23.574,1.34 43.817,2.555 60.731,3.672 16.902,1.105 30.8,3.336 41.707,6.676 10.898,3.336 18.902,8.449 24.023,15.347 5.113,6.895 7.676,16.789 7.676,29.699 0,10.227 -0.899,20.907 -2.672,32.036 -1.781,11.113 -6.121,21.351 -13.012,30.691 -6.898,9.348 -17.015,17.02 -30.367,23.027 -13.344,6.004 -31.359,9.008 -54.051,9.008 -36.035,0 -64.0662,-8.789 -84.0857,-26.355 C 48.0508,451.723 36.9219,426.926 34.6992,394.891 H 21.3555 c 0.8867,16.015 4.2226,31.035 10.0156,45.043 5.7695,14.011 14.1133,26.136 25.0234,36.379 10.8946,10.222 24.2422,18.23 40.0391,24.015 15.7854,5.781 34.3634,8.684 55.7224,8.684 15.121,0 29.465,-1.571 43.043,-4.68 13.567,-3.113 25.469,-8.566 35.707,-16.348 10.223,-7.789 18.457,-17.91 24.688,-30.367 6.226,-12.461 9.562,-28.019 10.008,-46.711 V 192.688 c 0,-6.668 1.339,-11.583 4.003,-14.676 2.672,-3.125 6.227,-5.246 10.68,-6.352 4.445,-1.109 9.231,-1.558 14.348,-1.336 z m 259.594,140.485 c -10.461,6.668 -22.258,11.894 -35.372,15.683 -13.125,3.774 -26.359,7.442 -39.707,11.012 -18.687,4.887 -35.035,9.109 -49.046,12.68 -14.02,3.554 -27.032,7.773 -39.043,12.675 -11.575,4.891 -20.801,11.899 -27.696,21.02 -6.906,9.109 -10.343,22.129 -10.343,39.043 0,3.105 0.882,8.672 2.668,16.68 1.777,8.011 6.007,16.125 12.683,24.359 6.672,8.227 16.899,15.566 30.695,22.023 13.789,6.446 32.7,9.676 56.723,9.676 16.453,0 31.469,-1.781 45.047,-5.336 13.566,-3.57 25.246,-9.238 35.035,-17.015 9.781,-7.793 17.348,-17.688 22.692,-29.7 5.335,-12.015 8.007,-26.699 8.007,-44.046 h 13.344 c 0,38.257 -11.121,66.07 -33.363,83.417 -22.25,17.348 -52.504,26.032 -90.762,26.032 -21.351,0 -39.371,-2.672 -54.055,-8.016 -14.679,-5.336 -26.691,-12.238 -36.035,-20.683 -9.344,-8.458 -16.019,-17.801 -20.023,-28.032 -4,-10.238 -6,-20.019 -6,-29.359 0,-18.688 3.336,-33.598 10.004,-44.719 6.675,-11.121 17.125,-19.797 31.367,-26.023 9.781,-4.453 20.906,-8.457 33.371,-12.008 12.449,-3.574 26.91,-7.344 43.371,-11.348 14.684,-3.566 29.137,-7.125 43.379,-10.676 14.234,-3.57 26.797,-8.347 37.707,-14.347 10.898,-6.004 19.789,-13.684 26.695,-23.028 6.895,-9.335 10.34,-21.582 10.34,-36.699 0,-14.687 -3.445,-27.148 -10.34,-37.375 -6.906,-10.242 -15.679,-18.582 -26.359,-25.027 -10.68,-6.453 -22.59,-11.121 -35.703,-14.016 -13.129,-2.886 -25.922,-4.336 -38.375,-4.336 -40.488,0 -71.524,9.004 -93.094,27.035 -21.59,18.016 -32.363,46.375 -32.363,85.086 h -13.352 c 0,-43.164 11.68,-74.746 35.039,-94.765 23.356,-20.02 57.942,-30.028 103.77,-30.028 14.683,0 29.469,1.661 44.375,5 14.902,3.336 28.254,8.778 40.047,16.344 11.781,7.563 21.351,17.356 28.695,29.367 7.344,12.012 11.012,26.7 11.012,44.043 0,16.453 -3.235,29.805 -9.68,40.039 -6.453,10.235 -14.91,18.692 -25.355,25.368 z m 349.015,127.793 c 6.008,-15.348 9.012,-33.036 9.012,-53.051 V 157.98 h -13.352 v 225.567 c 0,20.019 -2.894,37.035 -8.672,51.051 -5.785,14.015 -13.679,25.582 -23.691,34.707 -10.012,9.109 -21.586,15.785 -34.699,20.011 -13.133,4.231 -27.027,6.344 -41.711,6.344 -20.469,0 -38.484,-3.894 -54.059,-11.68 -15.574,-7.789 -28.586,-18.25 -39.039,-31.367 C 686.574,439.488 678.68,424.254 673.344,406.902 668,389.547 665.336,371.305 665.336,352.18 v -194.2 h -13.352 v 476.489 h 13.352 V 416.246 h 1.336 c 3.105,13.352 8.109,25.578 15.012,36.703 6.89,11.114 15.57,20.906 26.023,29.364 10.453,8.445 22.578,15.011 36.379,19.687 13.781,4.672 29.129,7.012 46.043,7.012 17.789,0 34.141,-2.672 49.047,-8.016 14.902,-5.336 27.804,-13.234 38.707,-23.687 10.898,-10.461 19.355,-23.364 25.359,-38.707" /></g></g></svg>